<svg xmlns="http://www.w3.org/2000/svg" viewBox="0 0 64 64">
  <defs>
    <linearGradient id="g" x1="0" y1="0" x2="1" y2="1">
      <stop offset="0" stop-color="#e6dff0"/>
      <stop offset="0.55" stop-color="#b9adcb"/>
      <stop offset="1" stop-color="#8f8799"/>
    </linearGradient>
  </defs>
  <rect width="64" height="64" rx="15" fill="#19171e"/>
  <g fill="url(#g)">
    <!-- Top-left finder -->
    <rect x="9" y="9" width="20" height="20" rx="3"/>
    <!-- Top-right finder -->
    <rect x="35" y="9" width="20" height="20" rx="3"/>
    <!-- Bottom-left finder -->
    <rect x="9" y="35" width="20" height="20" rx="3"/>
  </g>
  <g fill="#19171e">
    <rect x="13" y="13" width="12" height="12" rx="2"/>
    <rect x="39" y="13" width="12" height="12" rx="2"/>
    <rect x="13" y="39" width="12" height="12" rx="2"/>
  </g>
  <g fill="url(#g)">
    <rect x="16.5" y="16.5" width="5" height="5" rx="1.5"/>
    <rect x="42.5" y="16.5" width="5" height="5" rx="1.5"/>
    <rect x="16.5" y="42.5" width="5" height="5" rx="1.5"/>
    <!-- Bottom-right data quadrant (5x5 grid) -->
    <rect x="35.35" y="35.35" width="3.3" height="3.3" rx="0.8"/>
    <rect x="39.35" y="35.35" width="3.3" height="3.3" rx="0.8"/>
    <rect x="47.35" y="35.35" width="3.3" height="3.3" rx="0.8"/>
    <rect x="35.35" y="39.35" width="3.3" height="3.3" rx="0.8"/>
    <rect x="39.35" y="39.35" width="3.3" height="3.3" rx="0.8"/>
    <rect x="51.35" y="39.35" width="3.3" height="3.3" rx="0.8"/>
    <rect x="43.35" y="43.35" width="3.3" height="3.3" rx="0.8"/>
    <rect x="47.35" y="43.35" width="3.3" height="3.3" rx="0.8"/>
    <rect x="35.35" y="47.35" width="3.3" height="3.3" rx="0.8"/>
    <rect x="43.35" y="47.35" width="3.3" height="3.3" rx="0.8"/>
    <rect x="39.35" y="51.35" width="3.3" height="3.3" rx="0.8"/>
    <rect x="51.35" y="51.35" width="3.3" height="3.3" rx="0.8"/>
  </g>
</svg>
